<?xml version="1.0" encoding="UTF-8" standalone="no"?>
<!DOCTYPE svg PUBLIC "-//W3C//DTD SVG 1.1//EN" "http://www.w3.org/Graphics/SVG/1.1/DTD/svg11.dtd">
<svg width="100%" height="100%" viewBox="0 0 6875 625" version="1.1" xmlns="http://www.w3.org/2000/svg" xmlns:xlink="http://www.w3.org/1999/xlink" xml:space="preserve" xmlns:serif="http://www.serif.com/" style="fill-rule:evenodd;clip-rule:evenodd;stroke-linejoin:round;stroke-miterlimit:2;">
    <g transform="matrix(4.16667,0,0,4.16667,0,0)">
        <g transform="matrix(2.55102,0,0,2.46305,-365.878,-21.2102)">
            <path d="M494.94,26.11C493.25,26.11 491.84,25.52 490.72,24.34C489.6,23.16 489.04,21.71 489.04,20.01C489.04,18.31 489.6,16.86 490.71,15.69C491.82,14.52 493.23,13.93 494.92,13.93C496.61,13.93 498.02,14.52 499.13,15.7C500.24,16.88 500.8,18.33 500.8,20.04C500.8,21.75 500.25,23.2 499.14,24.36C498.03,25.53 496.63,26.11 494.94,26.11ZM491.36,16.32C490.41,17.34 489.94,18.57 489.94,20.01C489.94,21.45 490.41,22.68 491.36,23.7C492.31,24.72 493.49,25.22 494.92,25.22C496.35,25.22 497.53,24.72 498.49,23.71C499.44,22.7 499.92,21.47 499.92,20.02C499.92,18.57 499.44,17.33 498.49,16.32C497.53,15.3 496.34,14.8 494.92,14.8C493.5,14.8 492.31,15.31 491.36,16.32ZM493.59,20.91L493.59,23.42L492.51,23.42L492.51,16.65L494.86,16.65C495.72,16.65 496.36,16.81 496.78,17.12C497.2,17.44 497.41,17.98 497.41,18.75C497.41,19.82 497,20.5 496.19,20.78L497.52,23.42L496.37,23.42L495.08,20.91L493.59,20.91ZM493.59,17.57L493.59,19.99L495.1,19.99C495.54,19.99 495.85,19.9 496.05,19.71C496.25,19.52 496.34,19.21 496.34,18.77C496.34,18.33 496.21,18.03 495.96,17.84C495.7,17.66 495.31,17.57 494.79,17.57L493.59,17.57Z" style="fill:rgb(168,217,238);fill-rule:nonzero;"/>
        </g>
        <g transform="matrix(2.08382,0,0,2.08382,-135.356,-9.86357)">
            <g>
                <path d="M189.48,50.58L175.15,50.58L175.15,69.55L168.88,69.55L168.88,13.2L189.47,13.2C195.6,13.2 200.14,14.7 203.08,17.7C206.02,20.7 207.48,25.26 207.47,31.38C207.47,44.18 201.47,50.58 189.47,50.58L189.48,50.58ZM175.15,45.04L189.4,45.04C197.15,45.04 201.03,40.48 201.04,31.36C201.04,27.01 200.11,23.86 198.28,21.79C196.45,19.72 193.47,18.79 189.4,18.79L175.15,18.79L175.15,45.04Z" style="fill:rgb(168,217,238);fill-rule:nonzero;"/>
                <path d="M241.5,28.87L247.63,28.87L247.63,69.55L241.52,69.55L241.52,66.7C237.93,68.99 233.78,70.25 229.52,70.36C223.99,70.36 220.31,68.92 218.49,66.04C216.67,63.16 215.74,57.84 215.7,50.08L215.7,28.87L221.81,28.87L221.81,50.01C221.81,55.92 222.34,59.9 223.31,61.89C224.28,63.88 226.69,64.89 230.31,64.89C232.16,64.89 233.99,64.63 235.77,64.13C237.22,63.76 238.64,63.26 240,62.63L241.5,61.89L241.5,28.87Z" style="fill:rgb(168,217,238);fill-rule:nonzero;"/>
                <rect x="259.8" y="11.05" width="6.11" height="58.5" style="fill:rgb(168,217,238);fill-rule:nonzero;"/>
                <path d="M290.93,33.48C285.02,33.48 282.06,35.55 282.06,39.66C281.91,41.28 282.7,42.85 284.09,43.7C287.06,44.95 290.18,45.77 293.38,46.14C298.21,46.98 301.63,48.16 303.64,49.68C305.65,51.2 306.65,54.05 306.64,58.23C306.64,62.41 305.29,65.47 302.6,67.43C299.91,69.38 295.99,70.38 290.84,70.43C286.86,70.37 282.88,69.99 278.96,69.29L276.51,68.88L276.83,63.59C281.46,64.36 286.14,64.82 290.84,64.97C293.33,65.12 295.82,64.6 298.04,63.47C299.75,62.38 300.71,60.43 300.53,58.42C300.76,56.55 299.95,54.71 298.41,53.62C297,52.78 293.91,51.98 289.12,51.22C284.33,50.46 280.95,49.34 278.95,47.88C276.95,46.42 275.95,43.71 275.95,39.73C275.71,36.27 277.3,32.93 280.13,30.94C283.26,28.95 286.92,27.95 290.63,28.09C294.8,28.17 298.96,28.55 303.08,29.23L305.36,29.64L305.19,34.86C300.47,34.08 295.7,33.63 290.91,33.49L290.93,33.48Z" style="fill:rgb(168,217,238);fill-rule:nonzero;"/>
                <path d="M343.7,64.5L346.06,64.26L346.23,69.06C340.98,69.86 335.67,70.29 330.36,70.36C324.5,70.36 320.35,68.66 317.9,65.28C315.45,61.89 314.24,56.59 314.24,49.44C314.24,35.16 319.91,28.02 331.25,28.02C336.74,28.02 340.83,29.52 343.55,32.62C346.27,35.72 347.62,40.51 347.62,47.07L347.3,51.72L320.42,51.72C320.42,56.22 321.25,59.56 322.87,61.73C324.49,63.9 327.37,65 331.37,65C335.37,65 339.53,64.88 343.71,64.5L343.7,64.5ZM341.5,46.88C341.5,41.88 340.7,38.38 339.1,36.38C337.49,34.31 334.9,33.28 331.28,33.28C328.23,33.02 325.24,34.17 323.14,36.38C321.32,38.56 320.38,42.04 320.34,46.88L341.51,46.88L341.5,46.88Z" style="fill:rgb(168,217,238);fill-rule:nonzero;"/>
                <path d="M388.4,11.08L388.4,69.58L382.4,69.58L382.4,66.78C378.66,69.04 374.39,70.28 370.02,70.36C368.09,70.39 366.16,70.12 364.32,69.55C362.61,68.91 361.07,67.88 359.82,66.55C356.89,63.63 355.43,58.21 355.43,50.31C355.43,42.41 356.74,36.7 359.38,33.21C362.02,29.72 366.37,27.97 372.45,27.96C375.82,27.98 379.17,28.34 382.47,29.02L382.47,11.02L388.41,11.08L388.4,11.08ZM367.22,64.33C368.44,64.75 369.73,64.94 371.01,64.9C372.77,64.87 374.52,64.61 376.22,64.14C377.76,63.76 379.26,63.26 380.72,62.64L382.35,61.9L382.35,34.29C379.16,33.67 375.91,33.34 372.66,33.32C368.54,33.32 365.67,34.64 364.04,37.26C362.41,39.88 361.59,43.97 361.59,49.52C361.59,55.82 362.54,60.06 364.44,62.22C365.17,63.15 366.12,63.88 367.22,64.33Z" style="fill:rgb(168,217,238);fill-rule:nonzero;"/>
                <path d="M400.2,19.63L400.2,12.55L406.31,12.55L406.31,19.63L400.2,19.63ZM400.2,69.55L400.2,28.87L406.31,28.87L406.31,69.55L400.2,69.55Z" style="fill:rgb(168,217,238);fill-rule:nonzero;"/>
            </g>
            <path d="M414.18,28.87L420.71,28.87L430.24,64.29L433.24,64.29L443.09,28.87L449.36,28.87L437.89,69.58L425.68,69.58L414.19,28.87L414.18,28.87Z" style="fill:rgb(168,217,238);fill-rule:nonzero;"/>
            <path d="M484.13,64.5L486.49,64.26L486.65,69.06C481.4,69.86 476.09,70.29 470.78,70.36C464.92,70.36 460.77,68.66 458.32,65.28C455.87,61.89 454.66,56.59 454.66,49.44C454.66,35.16 460.33,28.02 471.69,28.02C477.16,28.02 481.26,29.52 483.98,32.62C486.7,35.72 488.06,40.51 488.06,47.07L487.73,51.72L460.82,51.72C460.82,56.22 461.63,59.56 463.25,61.73C464.87,63.9 467.75,65 471.77,65C475.79,65 479.96,64.88 484.15,64.5L484.13,64.5ZM481.92,46.88C481.92,41.88 481.12,38.38 479.52,36.38C477.92,34.38 475.31,33.35 471.71,33.28C468.66,33.03 465.67,34.17 463.57,36.38C461.73,38.58 460.81,42.08 460.81,46.88L481.93,46.88L481.92,46.88Z" style="fill:rgb(168,217,238);fill-rule:nonzero;"/>
        </g>
        <g transform="matrix(1,0,0,1,17.6424,6.52987)">
            <path d="M78.29,24.87C77.98,24.43 82.74,19.68 83.08,19.34C86.87,15.39 91.33,12.15 96.26,9.77C107.56,4.55 123.48,5.88 133.96,12.57C153.15,24.72 151.88,50.01 141.31,67.41L110.73,67.41C110.73,67.41 107.07,57.64 104.65,52.82C103.84,51.17 101.98,46.23 100.29,49.74C98.6,53.25 97.14,56.33 95.66,59.74C92.07,67.79 88.71,76.03 85.12,84.08C84.79,84.87 84.07,85.73 83.29,85.45C82.92,85.2 82.66,84.82 82.58,84.38C77.64,68.5 73.23,52.46 68.3,36.62L67.36,33.67C67.03,32.67 66.08,26.98 64.07,27.87C63.65,28.09 63.31,28.45 63.11,28.89C62.72,29.6 62.38,30.35 62.11,31.11C60.71,34.7 59.39,38.32 58.03,41.93C56.91,44.88 55.84,47.84 54.74,50.81C53.01,55.59 51.35,60.4 49.54,65.14C49.46,65.35 48.85,67.45 48.55,67.45L14.53,67.45C13.95,67.45 12.13,63.45 11.88,63C10.24,60.15 8.84,57.16 7.7,54.07C5.47,47.44 5.2,40.31 6.91,33.53C8.54,26.29 12.61,19.83 18.44,15.23C24.55,10.7 31.78,7.92 39.36,7.18C54.51,6 69.21,12.68 78.29,24.87" style="fill:rgb(48,148,194);fill-rule:nonzero;"/>
        </g>
        <g transform="matrix(1,0,0,1,17.6424,6.52987)">
            <path d="M22.95,78.49L55.74,78.49C57.12,73.2 58.64,67.97 60.22,62.74C60.98,60.29 61.74,57.8 62.51,55.38C62.68,54.96 63.06,54.66 63.51,54.59C63.97,54.59 64.39,54.85 64.61,55.25C66.26,60.45 74.49,89.46 74.49,89.46C75.92,93.94 77.37,98.42 78.99,102.85C79.68,104.78 81.39,110.05 82.38,110.05C83.37,110.05 84.97,105.93 85.36,105.11C87.12,101.47 88.65,97.72 90.19,93.96C93.04,86.98 96.43,79.94 99.02,72.86C99.5,71.38 100.12,69.95 100.86,68.59C101.02,68.21 101.33,67.93 101.72,67.8C102.33,67.7 103.12,68.69 103.37,69.27L106.52,78L131.57,78.44C131.57,78.44 112.48,98.88 106.29,105.09C100.1,111.3 80.58,130.37 78.29,130.37C76,130.37 53.59,108.63 50.87,105.99C48.15,103.35 22.87,78.5 22.87,78.5" style="fill:rgb(0,102,153);fill-rule:nonzero;"/>
        </g>
        <g transform="matrix(1.64258,0,0,1.89322,659.657,-97.5717)">
            <g transform="matrix(52.0801,0,0,52.0801,177.775,123.528)">
                <path d="M0.114,-0L0.114,-0.7L0.399,-0.7C0.474,-0.7 0.539,-0.685 0.596,-0.655C0.652,-0.626 0.696,-0.584 0.727,-0.532C0.759,-0.48 0.774,-0.419 0.774,-0.35C0.774,-0.281 0.759,-0.22 0.727,-0.168C0.696,-0.116 0.652,-0.074 0.596,-0.045C0.539,-0.015 0.474,-0 0.399,-0L0.114,-0ZM0.188,-0.064L0.395,-0.064C0.457,-0.064 0.511,-0.076 0.557,-0.101C0.602,-0.125 0.638,-0.159 0.663,-0.202C0.688,-0.244 0.701,-0.294 0.701,-0.35C0.701,-0.406 0.688,-0.456 0.663,-0.499C0.638,-0.541 0.602,-0.575 0.557,-0.599C0.511,-0.624 0.457,-0.636 0.395,-0.636L0.188,-0.636L0.188,-0.064Z" style="fill:rgb(144,183,189);fill-rule:nonzero;"/>
            </g>
            <g transform="matrix(52.0801,0,0,52.0801,220.793,123.528)">
                <path d="M0.314,0.005C0.262,0.005 0.217,-0.007 0.176,-0.03C0.136,-0.053 0.104,-0.084 0.081,-0.125C0.058,-0.165 0.046,-0.211 0.046,-0.263C0.046,-0.315 0.058,-0.362 0.081,-0.402C0.105,-0.442 0.136,-0.473 0.176,-0.496C0.216,-0.519 0.262,-0.53 0.314,-0.53C0.365,-0.53 0.411,-0.519 0.451,-0.496C0.492,-0.473 0.523,-0.442 0.546,-0.402C0.569,-0.362 0.581,-0.316 0.581,-0.263C0.581,-0.211 0.569,-0.165 0.546,-0.125C0.523,-0.084 0.492,-0.053 0.451,-0.03C0.411,-0.007 0.365,0.005 0.314,0.005ZM0.314,-0.058C0.351,-0.058 0.385,-0.066 0.414,-0.084C0.444,-0.101 0.467,-0.125 0.484,-0.156C0.501,-0.187 0.509,-0.222 0.509,-0.263C0.509,-0.304 0.501,-0.34 0.484,-0.371C0.467,-0.401 0.444,-0.425 0.414,-0.442C0.385,-0.459 0.351,-0.468 0.314,-0.468C0.276,-0.468 0.243,-0.459 0.214,-0.442C0.184,-0.425 0.161,-0.401 0.144,-0.371C0.126,-0.34 0.118,-0.304 0.118,-0.263C0.118,-0.222 0.126,-0.187 0.144,-0.156C0.161,-0.125 0.184,-0.101 0.214,-0.084C0.243,-0.066 0.276,-0.058 0.314,-0.058Z" style="fill:rgb(144,183,189);fill-rule:nonzero;"/>
            </g>
            <g transform="matrix(52.0801,0,0,52.0801,253.447,123.528)">
                <path d="M0.317,0.005C0.265,0.005 0.218,-0.007 0.178,-0.03C0.137,-0.053 0.104,-0.084 0.081,-0.124C0.058,-0.165 0.046,-0.211 0.046,-0.263C0.046,-0.315 0.058,-0.362 0.081,-0.402C0.104,-0.442 0.137,-0.473 0.178,-0.496C0.218,-0.519 0.265,-0.53 0.317,-0.53C0.362,-0.53 0.402,-0.522 0.438,-0.504C0.474,-0.487 0.502,-0.461 0.523,-0.426L0.47,-0.39C0.452,-0.417 0.429,-0.436 0.403,-0.449C0.376,-0.461 0.347,-0.468 0.317,-0.468C0.279,-0.468 0.245,-0.459 0.215,-0.442C0.185,-0.425 0.161,-0.401 0.144,-0.371C0.126,-0.34 0.118,-0.304 0.118,-0.263C0.118,-0.222 0.126,-0.186 0.144,-0.155C0.161,-0.125 0.185,-0.101 0.215,-0.084C0.245,-0.066 0.279,-0.058 0.317,-0.058C0.347,-0.058 0.376,-0.064 0.403,-0.077C0.429,-0.089 0.452,-0.109 0.47,-0.135L0.523,-0.099C0.502,-0.065 0.474,-0.039 0.438,-0.022C0.402,-0.004 0.362,0.005 0.317,0.005Z" style="fill:rgb(144,183,189);fill-rule:nonzero;"/>
            </g>
            <g transform="matrix(52.0801,0,0,52.0801,282.746,123.528)">
                <path d="M0.316,0.005C0.271,0.005 0.232,-0.004 0.199,-0.02C0.165,-0.037 0.14,-0.062 0.121,-0.095C0.103,-0.129 0.094,-0.17 0.094,-0.221L0.094,-0.526L0.165,-0.526L0.165,-0.228C0.165,-0.172 0.179,-0.13 0.206,-0.102C0.234,-0.073 0.273,-0.059 0.323,-0.059C0.36,-0.059 0.392,-0.067 0.418,-0.082C0.445,-0.097 0.466,-0.119 0.48,-0.147C0.495,-0.176 0.502,-0.21 0.502,-0.25L0.502,-0.526L0.573,-0.526L0.573,-0L0.505,-0L0.505,-0.144L0.516,-0.118C0.5,-0.079 0.474,-0.049 0.439,-0.028C0.404,-0.006 0.363,0.005 0.316,0.005Z" style="fill:rgb(144,183,189);fill-rule:nonzero;"/>
            </g>
            <g transform="matrix(52.0801,0,0,52.0801,317.769,123.528)">
                <path d="M0.099,-0L0.099,-0.526L0.167,-0.526L0.167,-0.383L0.156,-0.408C0.172,-0.446 0.198,-0.476 0.234,-0.498C0.269,-0.519 0.311,-0.53 0.36,-0.53C0.411,-0.53 0.455,-0.517 0.491,-0.492C0.527,-0.466 0.55,-0.427 0.561,-0.376L0.533,-0.387C0.548,-0.429 0.575,-0.464 0.614,-0.491C0.654,-0.517 0.7,-0.53 0.755,-0.53C0.798,-0.53 0.835,-0.522 0.866,-0.505C0.898,-0.489 0.923,-0.464 0.94,-0.431C0.958,-0.397 0.967,-0.355 0.967,-0.305L0.967,-0L0.896,-0L0.896,-0.298C0.896,-0.353 0.883,-0.395 0.856,-0.424C0.83,-0.452 0.793,-0.466 0.745,-0.466C0.709,-0.466 0.678,-0.459 0.651,-0.444C0.625,-0.429 0.604,-0.407 0.59,-0.379C0.576,-0.35 0.569,-0.316 0.569,-0.276L0.569,-0L0.498,-0L0.498,-0.298C0.498,-0.353 0.484,-0.395 0.458,-0.424C0.432,-0.452 0.394,-0.466 0.346,-0.466C0.311,-0.466 0.28,-0.459 0.253,-0.444C0.226,-0.429 0.206,-0.407 0.192,-0.379C0.177,-0.35 0.17,-0.316 0.17,-0.276L0.17,-0L0.099,-0Z" style="fill:rgb(144,183,189);fill-rule:nonzero;"/>
            </g>
            <g transform="matrix(52.0801,0,0,52.0801,373.007,123.528)">
                <path d="M0.322,0.005C0.268,0.005 0.22,-0.007 0.178,-0.03C0.137,-0.053 0.104,-0.084 0.081,-0.125C0.058,-0.165 0.046,-0.211 0.046,-0.263C0.046,-0.315 0.057,-0.361 0.079,-0.401C0.102,-0.441 0.132,-0.473 0.171,-0.496C0.21,-0.519 0.254,-0.53 0.303,-0.53C0.352,-0.53 0.396,-0.519 0.434,-0.497C0.473,-0.474 0.503,-0.443 0.525,-0.403C0.547,-0.362 0.558,-0.316 0.558,-0.263C0.558,-0.26 0.558,-0.257 0.558,-0.253C0.557,-0.249 0.557,-0.245 0.557,-0.241L0.1,-0.241L0.1,-0.294L0.519,-0.294L0.491,-0.273C0.491,-0.311 0.483,-0.345 0.467,-0.374C0.451,-0.404 0.428,-0.427 0.4,-0.444C0.372,-0.461 0.34,-0.469 0.303,-0.469C0.267,-0.469 0.234,-0.461 0.206,-0.444C0.178,-0.427 0.155,-0.404 0.139,-0.374C0.123,-0.344 0.116,-0.31 0.116,-0.272L0.116,-0.26C0.116,-0.22 0.124,-0.185 0.142,-0.155C0.16,-0.124 0.184,-0.101 0.216,-0.084C0.247,-0.066 0.283,-0.058 0.324,-0.058C0.356,-0.058 0.386,-0.064 0.414,-0.075C0.441,-0.087 0.465,-0.104 0.485,-0.127L0.525,-0.081C0.501,-0.053 0.472,-0.032 0.437,-0.017C0.402,-0.003 0.364,0.005 0.322,0.005Z" style="fill:rgb(144,183,189);fill-rule:nonzero;"/>
            </g>
            <g transform="matrix(52.0801,0,0,52.0801,404.464,123.528)">
                <path d="M0.099,-0L0.099,-0.526L0.167,-0.526L0.167,-0.381L0.156,-0.408C0.173,-0.446 0.2,-0.476 0.236,-0.498C0.272,-0.519 0.316,-0.53 0.367,-0.53C0.41,-0.53 0.447,-0.522 0.48,-0.505C0.512,-0.489 0.537,-0.464 0.555,-0.431C0.574,-0.397 0.583,-0.355 0.583,-0.305L0.583,-0L0.512,-0L0.512,-0.298C0.512,-0.353 0.498,-0.395 0.47,-0.424C0.443,-0.452 0.404,-0.466 0.354,-0.466C0.317,-0.466 0.284,-0.459 0.256,-0.444C0.229,-0.429 0.207,-0.407 0.192,-0.379C0.178,-0.35 0.17,-0.316 0.17,-0.276L0.17,-0L0.099,-0Z" style="fill:rgb(144,183,189);fill-rule:nonzero;"/>
            </g>
            <g transform="matrix(52.0801,0,0,52.0801,439.696,123.528)">
                <path d="M0.265,0.005C0.216,0.005 0.178,-0.009 0.151,-0.035C0.124,-0.062 0.111,-0.1 0.111,-0.148L0.111,-0.641L0.182,-0.641L0.182,-0.152C0.182,-0.121 0.19,-0.097 0.205,-0.081C0.221,-0.064 0.243,-0.056 0.273,-0.056C0.304,-0.056 0.33,-0.065 0.351,-0.083L0.376,-0.032C0.362,-0.019 0.345,-0.01 0.326,-0.004C0.306,0.002 0.286,0.005 0.265,0.005ZM0.017,-0.466L0.017,-0.526L0.342,-0.526L0.342,-0.466L0.017,-0.466Z" style="fill:rgb(144,183,189);fill-rule:nonzero;"/>
            </g>
            <g transform="matrix(52.0801,0,0,52.0801,459.776,123.528)">
                <path d="M0.428,-0L0.428,-0.116L0.425,-0.135L0.425,-0.329C0.425,-0.374 0.413,-0.408 0.387,-0.432C0.362,-0.456 0.325,-0.468 0.276,-0.468C0.242,-0.468 0.209,-0.463 0.179,-0.451C0.148,-0.44 0.122,-0.425 0.101,-0.406L0.069,-0.459C0.096,-0.481 0.128,-0.499 0.165,-0.511C0.203,-0.524 0.242,-0.53 0.283,-0.53C0.351,-0.53 0.404,-0.513 0.441,-0.479C0.478,-0.446 0.496,-0.394 0.496,-0.326L0.496,-0L0.428,-0ZM0.247,0.005C0.207,0.005 0.173,-0.002 0.144,-0.014C0.116,-0.027 0.093,-0.045 0.078,-0.068C0.063,-0.091 0.055,-0.118 0.055,-0.148C0.055,-0.175 0.061,-0.2 0.074,-0.222C0.087,-0.245 0.109,-0.263 0.138,-0.277C0.168,-0.291 0.208,-0.297 0.258,-0.297L0.439,-0.297L0.439,-0.244L0.26,-0.244C0.209,-0.244 0.174,-0.235 0.155,-0.217C0.135,-0.199 0.125,-0.177 0.125,-0.15C0.125,-0.12 0.137,-0.096 0.16,-0.078C0.184,-0.06 0.216,-0.051 0.258,-0.051C0.298,-0.051 0.333,-0.06 0.362,-0.079C0.39,-0.097 0.412,-0.123 0.425,-0.158L0.441,-0.109C0.428,-0.074 0.405,-0.046 0.372,-0.026C0.339,-0.006 0.297,0.005 0.247,0.005Z" style="fill:rgb(144,183,189);fill-rule:nonzero;"/>
            </g>
            <g transform="matrix(52.0801,0,0,52.0801,490.497,123.528)">
                <path d="M0.265,0.005C0.216,0.005 0.178,-0.009 0.151,-0.035C0.124,-0.062 0.111,-0.1 0.111,-0.148L0.111,-0.641L0.182,-0.641L0.182,-0.152C0.182,-0.121 0.19,-0.097 0.205,-0.081C0.221,-0.064 0.243,-0.056 0.273,-0.056C0.304,-0.056 0.33,-0.065 0.351,-0.083L0.376,-0.032C0.362,-0.019 0.345,-0.01 0.326,-0.004C0.306,0.002 0.286,0.005 0.265,0.005ZM0.017,-0.466L0.017,-0.526L0.342,-0.526L0.342,-0.466L0.017,-0.466Z" style="fill:rgb(144,183,189);fill-rule:nonzero;"/>
            </g>
            <g transform="matrix(52.0801,0,0,52.0801,511.618,123.528)">
                <path d="M0.099,-0L0.099,-0.525L0.17,-0.525L0.17,-0L0.099,-0ZM0.135,-0.641C0.12,-0.641 0.108,-0.646 0.098,-0.656C0.088,-0.666 0.083,-0.678 0.083,-0.692C0.083,-0.706 0.088,-0.718 0.098,-0.728C0.108,-0.737 0.12,-0.742 0.135,-0.742C0.15,-0.742 0.162,-0.737 0.172,-0.728C0.182,-0.719 0.187,-0.707 0.187,-0.693C0.187,-0.678 0.182,-0.666 0.173,-0.656C0.163,-0.646 0.15,-0.641 0.135,-0.641Z" style="fill:rgb(144,183,189);fill-rule:nonzero;"/>
            </g>
            <g transform="matrix(52.0801,0,0,52.0801,525.642,123.528)">
                <path d="M0.314,0.005C0.262,0.005 0.217,-0.007 0.176,-0.03C0.136,-0.053 0.104,-0.084 0.081,-0.125C0.058,-0.165 0.046,-0.211 0.046,-0.263C0.046,-0.315 0.058,-0.362 0.081,-0.402C0.105,-0.442 0.136,-0.473 0.176,-0.496C0.216,-0.519 0.262,-0.53 0.314,-0.53C0.365,-0.53 0.411,-0.519 0.451,-0.496C0.492,-0.473 0.523,-0.442 0.546,-0.402C0.569,-0.362 0.581,-0.316 0.581,-0.263C0.581,-0.211 0.569,-0.165 0.546,-0.125C0.523,-0.084 0.492,-0.053 0.451,-0.03C0.411,-0.007 0.365,0.005 0.314,0.005ZM0.314,-0.058C0.351,-0.058 0.385,-0.066 0.414,-0.084C0.444,-0.101 0.467,-0.125 0.484,-0.156C0.501,-0.187 0.509,-0.222 0.509,-0.263C0.509,-0.304 0.501,-0.34 0.484,-0.371C0.467,-0.401 0.444,-0.425 0.414,-0.442C0.385,-0.459 0.351,-0.468 0.314,-0.468C0.276,-0.468 0.243,-0.459 0.214,-0.442C0.184,-0.425 0.161,-0.401 0.144,-0.371C0.126,-0.34 0.118,-0.304 0.118,-0.263C0.118,-0.222 0.126,-0.187 0.144,-0.156C0.161,-0.125 0.184,-0.101 0.214,-0.084C0.243,-0.066 0.276,-0.058 0.314,-0.058Z" style="fill:rgb(144,183,189);fill-rule:nonzero;"/>
            </g>
            <g transform="matrix(52.0801,0,0,52.0801,558.296,123.528)">
                <path d="M0.099,-0L0.099,-0.526L0.167,-0.526L0.167,-0.381L0.156,-0.408C0.173,-0.446 0.2,-0.476 0.236,-0.498C0.272,-0.519 0.316,-0.53 0.367,-0.53C0.41,-0.53 0.447,-0.522 0.48,-0.505C0.512,-0.489 0.537,-0.464 0.555,-0.431C0.574,-0.397 0.583,-0.355 0.583,-0.305L0.583,-0L0.512,-0L0.512,-0.298C0.512,-0.353 0.498,-0.395 0.47,-0.424C0.443,-0.452 0.404,-0.466 0.354,-0.466C0.317,-0.466 0.284,-0.459 0.256,-0.444C0.229,-0.429 0.207,-0.407 0.192,-0.379C0.178,-0.35 0.17,-0.316 0.17,-0.276L0.17,-0L0.099,-0Z" style="fill:rgb(144,183,189);fill-rule:nonzero;"/>
            </g>
        </g>
    </g>
</svg>
