<?xml version="1.0" encoding="UTF-8" standalone="no"?><!DOCTYPE svg PUBLIC "-//W3C//DTD SVG 1.1//EN" "http://www.w3.org/Graphics/SVG/1.1/DTD/svg11.dtd"><svg width="100%" height="100%" viewBox="0 0 2099 584" version="1.1" xmlns="http://www.w3.org/2000/svg" xmlns:xlink="http://www.w3.org/1999/xlink" xml:space="preserve" xmlns:serif="http://www.serif.com/" style="fill-rule:evenodd;clip-rule:evenodd;stroke-linejoin:round;stroke-miterlimit:2;"><path d="M2062.25,108.792c-7.042,-0 -12.917,-2.459 -17.583,-7.375c-4.667,-4.917 -7,-10.959 -7,-18.042c-0,-7.083 2.333,-13.125 6.958,-18c4.625,-4.875 10.5,-7.333 17.542,-7.333c7.041,-0 12.916,2.458 17.541,7.375c4.625,4.916 6.959,10.958 6.959,18.083c-0,7.125 -2.292,13.167 -6.917,18c-4.625,4.875 -10.458,7.292 -17.5,7.292Zm-14.917,-40.792c-3.958,4.25 -5.916,9.375 -5.916,15.375c-0,6 1.958,11.125 5.916,15.375c3.959,4.25 8.875,6.333 14.834,6.333c5.958,0 10.875,-2.083 14.875,-6.291c3.958,-4.209 5.958,-9.334 5.958,-15.375c0,-6.042 -2,-11.209 -5.958,-15.417c-4,-4.25 -8.959,-6.333 -14.875,-6.333c-5.917,-0 -10.875,2.125 -14.834,6.333Zm9.292,19.125l0,10.458l-4.5,0l0,-28.208l9.792,0c3.583,0 6.25,0.667 8,1.958c1.75,1.334 2.625,3.584 2.625,6.792c-0,4.458 -1.709,7.292 -5.084,8.458l5.542,11l-4.792,0l-5.375,-10.458l-6.208,0Zm0,-13.917l0,10.084l6.292,-0c1.833,-0 3.125,-0.375 3.958,-1.167c0.833,-0.792 1.208,-2.083 1.208,-3.917c0,-1.833 -0.541,-3.083 -1.583,-3.875c-1.083,-0.75 -2.708,-1.125 -4.875,-1.125l-5,0Z" style="fill:#a8d9ee;fill-rule:nonzero;"/><g><g><path d="M789.5,210.75l-59.708,0l-0,79.042l-26.125,-0l-0,-234.792l85.791,-0c25.542,-0 44.459,6.25 56.709,18.75c12.25,12.5 18.333,31.5 18.291,57c0,53.333 -25,80 -75,80l0.042,-0Zm-59.708,-23.083l59.375,-0c32.291,-0 48.458,-19 48.5,-57c-0,-18.125 -3.875,-31.25 -11.5,-39.875c-7.625,-8.625 -20.042,-12.5 -37,-12.5l-59.375,-0l-0,109.375Z" style="fill:#a8d9ee;fill-rule:nonzero;"/><path d="M1006.25,120.292l25.542,-0l-0,169.5l-25.459,-0l0,-11.875c-14.958,9.541 -32.25,14.791 -50,15.25c-23.041,-0 -38.375,-6 -45.958,-18c-7.583,-12 -11.458,-34.167 -11.625,-66.5l0,-88.375l25.458,-0l0,88.083c0,24.625 2.209,41.208 6.25,49.5c4.042,8.292 14.084,12.5 29.167,12.5c7.708,0 15.333,-1.083 22.75,-3.167c6.042,-1.541 11.958,-3.625 17.625,-6.25l6.25,-3.083l0,-137.583Z" style="fill:#a8d9ee;fill-rule:nonzero;"/><rect x="1082.5" y="46.042" width="25.458" height="243.75" style="fill:#a8d9ee;fill-rule:nonzero;"/><path d="M1212.21,139.5c-24.625,0 -36.958,8.625 -36.958,25.75c-0.625,6.75 2.667,13.292 8.458,16.833c12.375,5.209 25.375,8.625 38.709,10.167c20.125,3.5 34.375,8.417 42.75,14.75c8.375,6.333 12.541,18.208 12.5,35.625c-0,17.417 -5.625,30.167 -16.834,38.333c-11.208,8.125 -27.541,12.292 -49,12.5c-16.583,-0.25 -33.166,-1.833 -49.5,-4.75l-10.208,-1.708l1.333,-22.042c19.292,3.209 38.792,5.125 58.375,5.75c10.375,0.625 20.75,-1.541 30,-6.25c7.125,-4.541 11.125,-12.666 10.375,-21.041c0.959,-7.792 -2.416,-15.459 -8.833,-20c-5.875,-3.5 -18.75,-6.834 -38.708,-10c-19.959,-3.167 -34.042,-7.834 -42.375,-13.917c-8.334,-6.083 -12.5,-17.375 -12.5,-33.958c-1,-14.417 5.625,-28.334 17.416,-36.625c13.042,-8.292 28.292,-12.459 43.75,-11.875c17.375,0.333 34.709,1.916 51.875,4.75l9.5,1.708l-0.708,21.75c-19.667,-3.25 -39.542,-5.125 -59.5,-5.708l0.083,-0.042Z" style="fill:#a8d9ee;fill-rule:nonzero;"/><path d="M1432.08,268.75l9.834,-1l0.708,20c-21.875,3.333 -44,5.125 -66.125,5.417c-24.417,-0 -41.708,-7.084 -51.917,-21.167c-10.208,-14.125 -15.25,-36.208 -15.25,-66c0,-59.5 23.625,-89.25 70.875,-89.25c22.875,-0 39.917,6.25 51.25,19.167c11.334,12.916 16.959,32.875 16.959,60.208l-1.334,19.375l-112,-0c0,18.75 3.459,32.667 10.209,41.708c6.75,9.042 18.75,13.625 35.416,13.625c16.667,0 34,-0.5 51.417,-2.083l-0.042,0Zm-9.166,-73.417c-0,-20.833 -3.334,-35.416 -10,-43.75c-6.709,-8.625 -17.5,-12.916 -32.584,-12.916c-12.708,-1.084 -25.166,3.708 -33.916,12.916c-7.584,9.084 -11.5,23.584 -11.667,43.75l88.208,0l-0.041,0Z" style="fill:#a8d9ee;fill-rule:nonzero;"/><path d="M1618.33,46.167l0,243.75l-25,-0l0,-11.667c-15.583,9.417 -33.375,14.583 -51.583,14.917c-8.042,0.125 -16.083,-1 -23.75,-3.375c-7.125,-2.667 -13.542,-6.959 -18.75,-12.5c-12.208,-12.167 -18.292,-34.75 -18.292,-67.667c0,-32.917 5.459,-56.708 16.459,-71.25c11,-14.542 29.125,-21.833 54.458,-21.875c14.042,0.083 28,1.583 41.75,4.417l-0,-75l24.75,0.25l-0.042,-0Zm-88.25,221.875c5.084,1.75 10.459,2.541 15.792,2.375c7.333,-0.125 14.625,-1.209 21.708,-3.167c6.417,-1.583 12.667,-3.667 18.75,-6.25l6.792,-3.083l-0,-115.042c-13.292,-2.583 -26.833,-3.958 -40.375,-4.042c-17.167,0 -29.125,5.5 -35.917,16.417c-6.791,10.917 -10.208,27.958 -10.208,51.083c-0,26.25 3.958,43.917 11.875,52.917c3.042,3.875 7,6.917 11.583,8.792Z" style="fill:#a8d9ee;fill-rule:nonzero;"/><path d="M1667.5,81.792l0,-29.5l25.458,-0l0,29.5l-25.458,-0Zm0,208l0,-169.5l25.458,-0l0,169.5l-25.458,-0Z" style="fill:#a8d9ee;fill-rule:nonzero;"/></g><path d="M1725.75,120.292l27.208,-0l39.709,147.583l12.5,0l41.041,-147.583l26.125,-0l-47.791,169.625l-50.875,-0l-47.875,-169.625l-0.042,-0Z" style="fill:#a8d9ee;fill-rule:nonzero;"/><path d="M2017.21,268.75l9.834,-1l0.666,20c-21.875,3.333 -44,5.125 -66.125,5.417c-24.416,-0 -41.708,-7.084 -51.916,-21.167c-10.209,-14.125 -15.25,-36.208 -15.25,-66c-0,-59.5 23.625,-89.25 70.958,-89.25c22.792,-0 39.875,6.25 51.208,19.167c11.334,12.916 17,32.875 17,60.208l-1.375,19.375l-112.125,-0c0,18.75 3.375,32.667 10.125,41.708c6.75,9.042 18.75,13.625 35.5,13.625c16.75,0 34.125,-0.5 51.584,-2.083l-0.084,0Zm-9.208,-73.417c0,-20.833 -3.333,-35.416 -10,-43.75c-6.667,-8.333 -17.542,-12.625 -32.542,-12.916c-12.708,-1.042 -25.166,3.708 -33.916,12.916c-7.667,9.167 -11.5,23.75 -11.5,43.75l88,0l-0.042,0Z" style="fill:#a8d9ee;fill-rule:nonzero;"/></g><path d="M326.208,103.625c-1.291,-1.833 18.542,-21.625 19.959,-23.042c15.791,-16.458 34.375,-29.958 54.916,-39.875c47.084,-21.75 113.417,-16.208 157.084,11.667c79.958,50.625 74.666,156 30.625,228.5l-127.417,0c0,0 -15.25,-40.708 -25.333,-60.792c-3.375,-6.875 -11.125,-27.458 -18.167,-12.833c-7.042,14.625 -13.125,27.458 -19.292,41.667c-14.958,33.541 -28.958,67.875 -43.916,101.416c-1.375,3.292 -4.375,6.875 -7.625,5.709c-1.542,-1.042 -2.625,-2.625 -2.959,-4.459c-20.583,-66.166 -38.958,-133 -59.5,-199l-3.916,-12.291c-1.375,-4.167 -5.334,-27.875 -13.709,-24.167c-1.75,0.917 -3.166,2.417 -4,4.25c-1.625,2.958 -3.041,6.083 -4.166,9.25c-5.834,14.958 -11.334,30.042 -17,45.083c-4.667,12.292 -9.125,24.625 -13.709,37c-7.208,19.917 -14.125,39.959 -21.666,59.709c-0.334,0.875 -2.875,9.625 -4.125,9.625l-141.75,-0c-2.417,-0 -10,-16.667 -11.042,-18.542c-6.833,-11.875 -12.667,-24.333 -17.417,-37.208c-9.291,-27.625 -10.416,-57.334 -3.291,-85.584c6.791,-30.166 23.75,-57.083 48.041,-76.25c25.459,-18.875 55.584,-30.458 87.167,-33.541c63.125,-4.917 124.375,22.916 162.208,73.708" style="fill:#3094c2;fill-rule:nonzero;"/><path d="M95.625,327.042l136.625,-0c5.75,-22.042 12.083,-43.834 18.667,-65.625c3.166,-10.209 6.333,-20.584 9.541,-30.667c0.709,-1.75 2.292,-3 4.167,-3.292c1.917,0 3.667,1.084 4.583,2.75c6.875,21.667 41.167,142.542 41.167,142.542c5.958,18.667 12,37.333 18.75,55.792c2.875,8.041 10,30 14.125,30c4.125,-0 10.792,-17.167 12.417,-20.584c7.333,-15.166 13.708,-30.791 20.125,-46.458c11.875,-29.083 26,-58.417 36.791,-87.917c2,-6.166 4.584,-12.125 7.667,-17.791c0.667,-1.584 1.958,-2.75 3.583,-3.292c2.542,-0.417 5.834,3.708 6.875,6.125l13.125,36.375l104.375,1.833c0,0 -79.541,85.167 -105.333,111.042c-25.792,25.875 -107.125,105.333 -116.667,105.333c-9.541,0 -102.916,-90.583 -114.25,-101.583c-11.333,-11 -116.666,-114.542 -116.666,-114.542" style="fill:#069;fill-rule:nonzero;"/><path d="M702.305,517.505l0,-140.728l49.684,-0c13.038,-0 24.465,2.992 34.281,8.976c9.816,5.984 17.464,14.251 22.945,24.802c5.48,10.55 8.221,22.745 8.221,36.586c-0,13.84 -2.741,26.035 -8.221,36.586c-5.481,10.55 -13.129,18.817 -22.945,24.801c-9.816,5.985 -21.243,8.977 -34.281,8.977l-49.684,-0Zm12.779,-12.933l36.158,0c10.861,0 20.276,-2.445 28.243,-7.335c7.967,-4.89 14.138,-11.644 18.512,-20.262c4.374,-8.619 6.561,-18.563 6.561,-29.834c0,-11.348 -2.187,-21.313 -6.561,-29.892c-4.374,-8.58 -10.545,-15.315 -18.512,-20.205c-7.967,-4.89 -17.382,-7.335 -28.243,-7.335l-36.158,0l0,114.863Z" style="fill:#90b7bd;fill-rule:nonzero;"/><path d="M881.125,518.45c-8.938,0 -16.913,-2.302 -23.925,-6.906c-7.012,-4.604 -12.553,-10.976 -16.621,-19.118c-4.068,-8.141 -6.102,-17.41 -6.102,-27.807c0,-10.536 2.041,-19.821 6.121,-27.854c4.081,-8.033 9.615,-14.35 16.601,-18.951c6.986,-4.601 14.961,-6.901 23.926,-6.901c8.964,-0 16.971,2.298 24.018,6.893c7.048,4.596 12.582,10.906 16.601,18.931c4.019,8.025 6.028,17.319 6.028,27.882c0,10.426 -2.005,19.703 -6.015,27.829c-4.01,8.127 -9.551,14.492 -16.623,19.096c-7.073,4.604 -15.076,6.906 -24.009,6.906Zm-0,-12.593c6.553,-0 12.405,-1.717 17.555,-5.15c5.15,-3.434 9.206,-8.266 12.167,-14.499c2.962,-6.232 4.443,-13.426 4.443,-21.583c-0,-8.274 -1.481,-15.494 -4.443,-21.659c-2.961,-6.165 -7.017,-10.95 -12.167,-14.354c-5.15,-3.404 -10.985,-5.106 -17.506,-5.106c-6.521,0 -12.344,1.702 -17.469,5.106c-5.124,3.404 -9.196,8.189 -12.216,14.354c-3.02,6.165 -4.53,13.385 -4.53,21.659c0,8.157 1.51,15.351 4.53,21.583c3.02,6.233 7.09,11.065 12.21,14.499c5.12,3.433 10.928,5.15 17.426,5.15Z" style="fill:#90b7bd;fill-rule:nonzero;"/><path d="M988.144,518.45c-9.081,0 -17.195,-2.302 -24.343,-6.906c-7.147,-4.604 -12.755,-10.954 -16.823,-19.052c-4.068,-8.097 -6.102,-17.382 -6.102,-27.855c-0,-10.548 2.034,-19.852 6.102,-27.911c4.068,-8.059 9.676,-14.376 16.823,-18.951c7.148,-4.575 15.262,-6.862 24.343,-6.862c7.764,-0 14.779,1.749 21.044,5.247c6.266,3.499 11.252,8.708 14.958,15.63l-9.361,7.228c-3.158,-5.267 -7.057,-9.169 -11.697,-11.706c-4.641,-2.537 -9.655,-3.806 -15.042,-3.806c-6.604,0 -12.527,1.702 -17.768,5.106c-5.241,3.404 -9.371,8.189 -12.391,14.354c-3.019,6.165 -4.529,13.389 -4.529,21.671c-0,8.283 1.51,15.507 4.529,21.672c3.02,6.165 7.15,10.964 12.391,14.398c5.241,3.433 11.164,5.15 17.768,5.15c5.387,-0 10.401,-1.265 15.042,-3.793c4.64,-2.529 8.539,-6.435 11.697,-11.719l9.361,7.232c-3.706,6.843 -8.692,12.033 -14.958,15.569c-6.265,3.536 -13.28,5.304 -21.044,5.304Z" style="fill:#90b7bd;fill-rule:nonzero;"/><path d="M1083.1,518.45c-7.873,0 -14.719,-1.661 -20.539,-4.982c-5.819,-3.321 -10.327,-8.351 -13.523,-15.089c-3.196,-6.738 -4.794,-15.139 -4.794,-25.204l0,-61.317l12.384,0l0,59.838c0,11.195 2.413,19.65 7.239,25.364c4.825,5.714 11.64,8.571 20.443,8.571c6.372,-0 11.894,-1.521 16.568,-4.561c4.674,-3.041 8.284,-7.437 10.83,-13.189c2.545,-5.752 3.818,-12.603 3.818,-20.555l-0,-55.468l12.381,0l0,105.647l-11.888,-0l0,-28.897l1.93,5.274c-2.887,7.688 -7.388,13.705 -13.503,18.05c-6.115,4.345 -13.23,6.518 -21.346,6.518Z" style="fill:#90b7bd;fill-rule:nonzero;"/><path d="M1161.01,517.505l-0,-105.647l11.888,0l-0,28.667l-1.93,-5.045c2.822,-7.687 7.315,-13.704 13.48,-18.049c6.165,-4.345 13.495,-6.518 21.991,-6.518c8.973,-0 16.599,2.581 22.876,7.743c6.278,5.162 10.337,12.915 12.177,23.258l-4.772,-2.136c2.604,-8.605 7.323,-15.567 14.157,-20.886c6.834,-5.32 15.021,-7.979 24.56,-7.979c7.406,-0 13.873,1.661 19.403,4.982c5.53,3.321 9.835,8.331 12.914,15.031c3.08,6.699 4.62,15.12 4.62,25.262l-0,61.317l-12.384,-0l-0,-59.838c-0,-11.195 -2.301,-19.65 -6.902,-25.364c-4.602,-5.714 -11.087,-8.571 -19.455,-8.571c-6.225,0 -11.654,1.521 -16.289,4.561c-4.634,3.041 -8.202,7.404 -10.706,13.088c-2.504,5.685 -3.756,12.57 -3.756,20.656l0,55.468l-12.384,-0l0,-59.838c0,-11.195 -2.3,-19.65 -6.9,-25.364c-4.601,-5.714 -11.085,-8.571 -19.454,-8.571c-6.225,0 -11.654,1.521 -16.288,4.561c-4.634,3.041 -8.204,7.404 -10.708,13.088c-2.505,5.685 -3.757,12.57 -3.757,20.656l-0,55.468l-12.381,-0Z" style="fill:#90b7bd;fill-rule:nonzero;"/><path d="M1386.2,518.45c-9.511,0 -17.886,-2.302 -25.125,-6.906c-7.239,-4.604 -12.888,-10.969 -16.949,-19.096c-4.061,-8.126 -6.091,-17.396 -6.091,-27.811c-0,-10.47 1.934,-19.74 5.802,-27.809c3.868,-8.069 9.202,-14.405 16.001,-19.009c6.799,-4.604 14.481,-6.906 23.048,-6.906c8.565,-0 16.197,2.254 22.897,6.761c6.7,4.508 11.964,10.8 15.792,18.878c3.829,8.077 5.743,17.446 5.743,28.107c-0,0.589 -0.017,1.273 -0.051,2.053c-0.033,0.78 -0.083,1.532 -0.148,2.254l-79.654,0l-0,-10.655l73.091,0l-4.955,4.269c0.066,-7.593 -1.324,-14.363 -4.168,-20.31c-2.844,-5.946 -6.716,-10.617 -11.616,-14.013c-4.899,-3.395 -10.543,-5.093 -16.931,-5.093c-6.337,-0 -11.985,1.698 -16.942,5.093c-4.958,3.396 -8.83,8.086 -11.617,14.07c-2.787,5.984 -4.181,12.849 -4.181,20.595l0,2.4c0,7.92 1.539,14.939 4.617,21.058c3.078,6.118 7.361,10.893 12.849,14.327c5.488,3.433 11.783,5.15 18.885,5.15c5.651,-0 10.883,-1.15 15.697,-3.451c4.814,-2.3 8.924,-5.79 12.331,-10.468l6.99,9.311c-4.086,5.629 -9.168,9.903 -15.245,12.822c-6.078,2.919 -12.768,4.379 -20.07,4.379Z" style="fill:#90b7bd;fill-rule:nonzero;"/><path d="M1449.68,517.505l0,-105.647l11.888,0l0,28.985l-1.929,-5.275c2.938,-7.746 7.58,-13.792 13.928,-18.137c6.347,-4.345 13.943,-6.518 22.788,-6.518c7.507,-0 14.067,1.661 19.68,4.982c5.612,3.321 10.017,8.331 13.212,15.031c3.196,6.699 4.794,15.12 4.794,25.262l0,61.317l-12.384,-0l0,-59.838c0,-11.195 -2.404,-19.65 -7.212,-25.364c-4.809,-5.714 -11.571,-8.571 -20.287,-8.571c-6.524,0 -12.207,1.521 -17.048,4.561c-4.841,3.041 -8.56,7.404 -11.155,13.088c-2.596,5.685 -3.893,12.57 -3.893,20.656l-0,55.468l-12.382,-0Z" style="fill:#90b7bd;fill-rule:nonzero;"/><path d="M1595.13,518.45c-8.609,0 -15.235,-2.687 -19.879,-8.062c-4.644,-5.375 -6.966,-12.944 -6.966,-22.71l0,-98.993l12.384,0l0,98.214c0,6.233 1.356,11.026 4.068,14.381c2.712,3.355 6.629,5.032 11.753,5.032c5.454,0 9.993,-1.802 13.616,-5.406l4.32,10.219c-2.357,2.471 -5.266,4.309 -8.727,5.516c-3.461,1.206 -6.984,1.809 -10.569,1.809Zm-43.2,-94.683l0,-11.909l56.595,0l0,11.909l-56.595,-0Z" style="fill:#90b7bd;fill-rule:nonzero;"/><path d="M1687.75,517.505l-0,-23.249l-0.493,-3.986l-0,-38.895c-0,-9.032 -2.195,-15.954 -6.585,-20.767c-4.39,-4.812 -10.873,-7.218 -19.451,-7.218c-5.954,-0 -11.59,1.131 -16.908,3.394c-5.318,2.263 -9.855,5.274 -13.611,9.033l-5.507,-10.561c4.633,-4.54 10.212,-8.066 16.737,-10.577c6.526,-2.511 13.358,-3.766 20.496,-3.766c11.916,-0 21.097,3.405 27.543,10.217c6.446,6.811 9.67,17.092 9.67,30.842l-0,65.533l-11.891,-0Zm-31.595,0.945c-6.875,0 -12.829,-1.282 -17.86,-3.846c-5.031,-2.565 -8.895,-6.172 -11.593,-10.824c-2.698,-4.651 -4.048,-9.972 -4.048,-15.963c0,-5.491 1.133,-10.499 3.399,-15.025c2.266,-4.525 5.988,-8.171 11.166,-10.936c5.178,-2.765 12.141,-4.148 20.89,-4.148l31.56,-0l-0,10.655l-31.141,-0c-8.915,-0 -15.075,1.808 -18.48,5.425c-3.405,3.617 -5.108,8.113 -5.108,13.488c0,6.103 2.039,10.953 6.116,14.552c4.077,3.599 9.737,5.398 16.979,5.398c7.073,0 13.117,-1.837 18.131,-5.512c5.013,-3.676 8.71,-8.976 11.091,-15.901l2.73,9.791c-2.309,7.019 -6.335,12.582 -12.077,16.688c-5.742,4.105 -12.994,6.158 -21.755,6.158Z" style="fill:#90b7bd;fill-rule:nonzero;"/><path d="M1759.43,518.45c-8.609,0 -15.235,-2.687 -19.879,-8.062c-4.644,-5.375 -6.966,-12.944 -6.966,-22.71l0,-98.993l12.384,0l0,98.214c0,6.233 1.356,11.026 4.068,14.381c2.711,3.355 6.629,5.032 11.753,5.032c5.454,0 9.993,-1.802 13.616,-5.406l4.319,10.219c-2.356,2.471 -5.265,4.309 -8.726,5.516c-3.461,1.206 -6.984,1.809 -10.569,1.809Zm-43.2,-94.683l0,-11.909l56.595,0l0,11.909l-56.595,-0Z" style="fill:#90b7bd;fill-rule:nonzero;"/><path d="M1798.16,517.505l-0,-105.546l12.384,-0l-0,105.546l-12.384,-0Zm6.279,-128.867c-2.558,0 -4.709,-1.005 -6.454,-3.015c-1.744,-2.011 -2.616,-4.423 -2.616,-7.238c0,-2.814 0.872,-5.193 2.616,-7.137c1.745,-1.943 3.896,-2.915 6.454,-2.915c2.558,0 4.71,0.938 6.454,2.815c1.744,1.876 2.616,4.222 2.616,7.036c0,2.949 -0.843,5.428 -2.529,7.439c-1.686,2.01 -3.866,3.015 -6.541,3.015Z" style="fill:#90b7bd;fill-rule:nonzero;"/><path d="M1879.18,518.45c-8.938,0 -16.913,-2.302 -23.925,-6.906c-7.012,-4.604 -12.553,-10.976 -16.621,-19.118c-4.068,-8.141 -6.102,-17.41 -6.102,-27.807c0,-10.536 2.041,-19.821 6.121,-27.854c4.081,-8.033 9.615,-14.35 16.601,-18.951c6.986,-4.601 14.961,-6.901 23.926,-6.901c8.964,-0 16.97,2.298 24.018,6.893c7.048,4.596 12.581,10.906 16.6,18.931c4.019,8.025 6.029,17.319 6.029,27.882c-0,10.426 -2.005,19.703 -6.015,27.829c-4.01,8.127 -9.551,14.492 -16.623,19.096c-7.073,4.604 -15.076,6.906 -24.009,6.906Zm-0,-12.593c6.553,-0 12.405,-1.717 17.555,-5.15c5.15,-3.434 9.206,-8.266 12.167,-14.499c2.962,-6.232 4.443,-13.426 4.443,-21.583c-0,-8.274 -1.481,-15.494 -4.443,-21.659c-2.961,-6.165 -7.017,-10.95 -12.167,-14.354c-5.15,-3.404 -10.985,-5.106 -17.506,-5.106c-6.521,0 -12.344,1.702 -17.469,5.106c-5.124,3.404 -9.196,8.189 -12.216,14.354c-3.02,6.165 -4.53,13.385 -4.53,21.659c0,8.157 1.51,15.351 4.53,21.583c3.02,6.233 7.09,11.065 12.21,14.499c5.12,3.433 10.928,5.15 17.426,5.15Z" style="fill:#90b7bd;fill-rule:nonzero;"/><path d="M1948.18,517.505l-0,-105.647l11.888,0l-0,28.985l-1.93,-5.275c2.938,-7.746 7.581,-13.792 13.928,-18.137c6.347,-4.345 13.943,-6.518 22.788,-6.518c7.508,-0 14.068,1.661 19.68,4.982c5.613,3.321 10.017,8.331 13.213,15.031c3.196,6.699 4.794,15.12 4.794,25.262l-0,61.317l-12.384,-0l-0,-59.838c-0,-11.195 -2.405,-19.65 -7.213,-25.364c-4.809,-5.714 -11.571,-8.571 -20.286,-8.571c-6.525,0 -12.208,1.521 -17.049,4.561c-4.841,3.041 -8.559,7.404 -11.155,13.088c-2.595,5.685 -3.893,12.57 -3.893,20.656l-0,55.468l-12.381,-0Z" style="fill:#90b7bd;fill-rule:nonzero;"/></svg>